# xmcd
#
# Track frame offsets: 
#        150
#        19296
#        34633
#        63686
#        78927
#        100602
#        121254
#
# Disc length: 2252 seconds
#
# Revision: 0
# Processed by: cddbd v1.5.2PL0 Copyright (c) Steve Scherf et al.
# Submitted via: ExactAudioCopy v1.3
#
DISCID=4f08ca07
DTITLE=Captain Morgan Express - Naked to the Nipple (Live at Slok)
DYEAR=2019
DGENRE=Blues
TTITLE0=Chicken Shack Boogie (Live)
TTITLE1=In the Middle of the Night (Live)
TTITLE2=Icepick's Confession (Live)
TTITLE3=Congo Square (Live)
TTITLE4=Checking Up on My Baby (Live)
TTITLE5=Catfish Blues (Live)
TTITLE6=Hip Shake (Live)
EXTD=
EXTT0=
EXTT1=
EXTT2=
EXTT3=
EXTT4=
EXTT5=
EXTT6=
PLAYORDER=
